<?xml version="1.0" encoding="UTF-8"?>
<svg xmlns="http://www.w3.org/2000/svg" xmlns:xlink="http://www.w3.org/1999/xlink" width="1921" height="1921" viewBox="0 0 1921 1921">
<path fill-rule="evenodd" fill="rgb(100%, 89.0625%, 78.125%)" fill-opacity="1" d="M 1066.589844 916.910156 C 1060.089844 901.21875 1062.261719 883.28125 1072.300781 869.589844 L 1514.941406 426.960938 C 1534.039062 410.648438 1562.480469 411.769531 1580.238281 429.539062 C 1693.140625 561.191406 1761.160156 725.398438 1774.421875 898.320312 C 1774.421875 923.445312 1755.109375 944.34375 1730.058594 946.324219 L 1104.089844 946.324219 C 1087.300781 943.746094 1073.089844 932.59375 1066.589844 916.910156 Z M 1872.808594 960.726562 C 1872.808594 457.039062 1464.488281 48.730469 960.808594 48.71875 C 634.980469 48.71875 333.90625 222.550781 170.992188 504.71875 C 8.078125 786.898438 8.078125 1134.550781 170.992188 1416.722656 C 333.90625 1698.898438 634.980469 1872.722656 960.808594 1872.722656 C 1464.488281 1872.722656 1872.808594 1464.40625 1872.808594 960.726562 Z M 1051.941406 849.230469 C 1038.25 859.269531 1020.308594 861.441406 1004.621094 854.941406 C 988.9375 848.441406 977.785156 834.230469 975.207031 817.449219 L 975.207031 191.46875 C 977.1875 166.421875 998.085938 147.109375 1023.210938 147.109375 C 1196.128906 160.378906 1360.339844 228.390625 1491.988281 341.289062 C 1509.761719 359.050781 1510.878906 387.488281 1494.570312 406.589844 Z M 916.992188 854.941406 C 901.304688 861.441406 883.363281 859.269531 869.675781 849.230469 L 427.042969 406.589844 C 410.734375 387.488281 411.859375 359.050781 429.621094 341.289062 C 561.277344 228.390625 725.480469 160.378906 898.40625 147.109375 C 923.527344 147.109375 944.429688 166.421875 946.40625 191.46875 L 946.40625 817.449219 C 943.832031 834.230469 932.679688 848.441406 916.992188 854.941406 Z M 406.679688 426.960938 L 849.3125 869.589844 C 859.355469 883.28125 861.523438 901.21875 855.027344 916.910156 C 848.527344 932.59375 834.3125 943.746094 817.53125 946.324219 L 191.550781 946.324219 C 166.507812 944.34375 147.195312 923.445312 147.195312 898.320312 C 160.460938 725.398438 228.476562 561.191406 341.375 429.539062 C 359.136719 411.769531 387.570312 410.648438 406.679688 426.960938 Z M 191.550781 975.121094 L 817.53125 975.121094 C 834.3125 977.699219 848.527344 988.851562 855.027344 1004.539062 C 861.523438 1020.226562 859.355469 1038.164062 849.3125 1051.855469 L 406.679688 1494.488281 C 387.570312 1510.796875 359.136719 1509.671875 341.375 1491.910156 C 228.476562 1360.253906 160.460938 1196.050781 147.195312 1023.121094 C 147.195312 998.003906 166.507812 977.101562 191.550781 975.121094 Z M 946.40625 1104 L 946.40625 1729.980469 C 944.429688 1755.019531 923.527344 1774.335938 898.40625 1774.335938 C 725.480469 1761.070312 561.277344 1693.054688 429.621094 1580.15625 C 411.859375 1562.394531 410.734375 1533.960938 427.042969 1514.851562 L 869.675781 1072.21875 C 883.363281 1062.175781 901.304688 1060.007812 916.992188 1066.503906 C 932.679688 1073.003906 943.832031 1087.21875 946.40625 1104 Z M 1104.089844 975.121094 L 1730.058594 975.121094 C 1755.109375 977.101562 1774.421875 998.003906 1774.421875 1023.121094 C 1761.160156 1196.050781 1693.140625 1360.253906 1580.238281 1491.910156 C 1562.480469 1509.671875 1534.039062 1510.796875 1514.941406 1494.488281 L 1072.300781 1051.855469 C 1062.261719 1038.164062 1060.089844 1020.226562 1066.589844 1004.539062 C 1073.089844 988.851562 1087.300781 977.699219 1104.089844 975.121094 Z M 1051.941406 1072.21875 L 1494.570312 1514.851562 C 1510.878906 1533.960938 1509.761719 1562.394531 1491.988281 1580.15625 C 1360.339844 1693.054688 1196.128906 1761.070312 1023.210938 1774.335938 C 998.085938 1774.335938 977.1875 1755.019531 975.207031 1729.980469 L 975.207031 1104 C 977.785156 1087.21875 988.9375 1073.003906 1004.621094 1066.503906 C 1020.308594 1060.007812 1038.25 1062.175781 1051.941406 1072.21875 "/>
<path fill-rule="evenodd" fill="rgb(98.046875%, 55.271912%, 4.707336%)" fill-opacity="1" d="M 170.992188 1416.722656 C 8.078125 1134.550781 8.078125 786.898438 170.992188 504.71875 C 333.90625 222.550781 634.980469 48.71875 960.808594 48.71875 C 1464.488281 48.730469 1872.808594 457.039062 1872.808594 960.726562 C 1872.808594 1464.40625 1464.488281 1872.722656 960.808594 1872.722656 C 634.980469 1872.722656 333.90625 1698.898438 170.992188 1416.722656 Z M 1920.808594 960.726562 C 1920.808594 430.53125 1491 0.730469 960.808594 0.71875 C 617.832031 0.71875 300.910156 183.699219 129.425781 480.71875 C 43.679688 629.238281 0.808594 794.980469 0.808594 960.722656 C 0.808594 1126.464844 43.679688 1292.210938 129.425781 1440.722656 C 300.910156 1737.746094 617.832031 1920.722656 960.808594 1920.722656 C 1491 1920.722656 1920.808594 1490.917969 1920.808594 960.726562 "/>
<path fill-rule="evenodd" fill="rgb(100%, 56.443787%, 0%)" fill-opacity="1" d="M 147.195312 898.320312 C 147.195312 923.445312 166.507812 944.34375 191.550781 946.324219 L 817.53125 946.324219 C 834.3125 943.746094 848.527344 932.59375 855.027344 916.910156 C 861.523438 901.21875 859.355469 883.28125 849.3125 869.589844 L 406.679688 426.960938 C 387.570312 410.648438 359.136719 411.769531 341.375 429.539062 C 228.476562 561.191406 160.460938 725.398438 147.195312 898.320312 "/>
<path fill-rule="evenodd" fill="rgb(100%, 56.443787%, 0%)" fill-opacity="1" d="M 427.042969 406.589844 L 869.675781 849.230469 C 883.363281 859.269531 901.304688 861.441406 916.992188 854.941406 C 932.679688 848.441406 943.832031 834.230469 946.40625 817.449219 L 946.40625 191.46875 C 944.429688 166.421875 923.527344 147.109375 898.40625 147.109375 C 725.480469 160.378906 561.277344 228.390625 429.621094 341.289062 C 411.859375 359.050781 410.734375 387.488281 427.042969 406.589844 "/>
<path fill-rule="evenodd" fill="rgb(100%, 56.443787%, 0%)" fill-opacity="1" d="M 975.207031 191.46875 L 975.207031 817.449219 C 977.785156 834.230469 988.9375 848.441406 1004.621094 854.941406 C 1020.308594 861.441406 1038.25 859.269531 1051.941406 849.230469 L 1494.570312 406.589844 C 1510.878906 387.488281 1509.761719 359.050781 1491.988281 341.289062 C 1360.339844 228.390625 1196.128906 160.378906 1023.210938 147.109375 C 998.085938 147.109375 977.1875 166.421875 975.207031 191.46875 "/>
<path fill-rule="evenodd" fill="rgb(100%, 56.443787%, 0%)" fill-opacity="1" d="M 1514.941406 426.960938 L 1072.300781 869.589844 C 1062.261719 883.28125 1060.089844 901.21875 1066.589844 916.910156 C 1073.089844 932.59375 1087.300781 943.746094 1104.089844 946.324219 L 1730.058594 946.324219 C 1755.109375 944.34375 1774.421875 923.445312 1774.421875 898.320312 C 1761.160156 725.398438 1693.140625 561.191406 1580.238281 429.539062 C 1562.480469 411.769531 1534.039062 410.648438 1514.941406 426.960938 "/>
<path fill-rule="evenodd" fill="rgb(100%, 56.443787%, 0%)" fill-opacity="1" d="M 1730.058594 975.121094 L 1104.089844 975.121094 C 1087.300781 977.699219 1073.089844 988.851562 1066.589844 1004.539062 C 1060.089844 1020.226562 1062.261719 1038.164062 1072.300781 1051.855469 L 1514.941406 1494.488281 C 1534.039062 1510.796875 1562.480469 1509.671875 1580.238281 1491.910156 C 1693.140625 1360.253906 1761.160156 1196.050781 1774.421875 1023.121094 C 1774.421875 998.003906 1755.109375 977.101562 1730.058594 975.121094 "/>
<path fill-rule="evenodd" fill="rgb(100%, 56.443787%, 0%)" fill-opacity="1" d="M 1494.570312 1514.851562 L 1051.941406 1072.21875 C 1038.25 1062.175781 1020.308594 1060.007812 1004.621094 1066.503906 C 988.9375 1073.003906 977.785156 1087.21875 975.207031 1104 L 975.207031 1729.980469 C 977.1875 1755.019531 998.085938 1774.335938 1023.210938 1774.335938 C 1196.128906 1761.070312 1360.339844 1693.054688 1491.988281 1580.15625 C 1509.761719 1562.394531 1510.878906 1533.960938 1494.570312 1514.851562 "/>
<path fill-rule="evenodd" fill="rgb(100%, 56.443787%, 0%)" fill-opacity="1" d="M 946.40625 1729.980469 L 946.40625 1104 C 943.832031 1087.21875 932.679688 1073.003906 916.992188 1066.503906 C 901.304688 1060.007812 883.363281 1062.175781 869.675781 1072.21875 L 427.042969 1514.851562 C 410.734375 1533.960938 411.859375 1562.394531 429.621094 1580.15625 C 561.277344 1693.054688 725.480469 1761.070312 898.40625 1774.335938 C 923.527344 1774.335938 944.429688 1755.019531 946.40625 1729.980469 "/>
<path fill-rule="evenodd" fill="rgb(100%, 56.443787%, 0%)" fill-opacity="1" d="M 406.679688 1494.488281 L 849.3125 1051.855469 C 859.355469 1038.164062 861.523438 1020.226562 855.027344 1004.539062 C 848.527344 988.851562 834.3125 977.699219 817.53125 975.121094 L 191.550781 975.121094 C 166.507812 977.101562 147.195312 998.003906 147.195312 1023.121094 C 160.460938 1196.050781 228.476562 1360.253906 341.375 1491.910156 C 359.136719 1509.671875 387.570312 1510.796875 406.679688 1494.488281 "/>
</svg>
